<?xml version="1.0" encoding="UTF-8"?>
<svg xmlns="http://www.w3.org/2000/svg" viewBox="0 0 480 480" width="480" height="480">
<path d="M424.86 142.68C420.81 143.07 416.76 143.45 412.71 143.83C412.71 214.76 412.71 285.68 412.71 356.6C408.64 358.37 395.44 357.18 390.36 357.18C372.82 357.2 355.29 357.19 337.75 357.18C277.11 357.14 216.47 357.25 155.84 357.18C136.4 357.15 116.97 357.18 97.53 357.18C92.09 357.18 77.18 358.47 72.9 356.6C72.9 285.7 72.9 214.79 72.9 143.89C69.66 142.85 62.08 145.11 60.39 141.81C62.47 138.03 75.15 129.95 79.23 126.8C93.66 115.67 108.05 104.85 122.42 93.7C127.11 90.05 131.77 86.42 136.48 82.79C138.09 81.55 140.4 79.03 142.43 78.68C144.61 78.3 146.83 80.75 148.31 82.04C150.98 84.39 156.69 89.78 160.22 89.88C195.66 90.9 231.28 89.89 266.74 89.89C280.18 89.89 293.63 89.89 307.07 89.89C313.39 89.89 320.56 90.85 326.79 89.83C331.64 89.03 338.16 78.55 342.9 78.67C344.92 78.73 346.46 80.73 347.97 81.82C352.25 84.88 356.14 88.83 360.52 91.66C366.85 95.77 372.38 101.27 378.63 105.54C388.47 112.27 397.63 120.26 407.26 127.33C411.89 130.73 416.89 134.07 421.16 137.94C422.94 139.55 424.91 140.01 424.86 142.68ZM253.81 111.84C253.85 107.27 247.71 102.32 243.23 103.53C243.23 106.3 243.23 109.07 243.23 111.84C246.76 111.84 250.29 111.84 253.81 111.84ZM240.91 103.67C239.44 104.11 237.96 104.55 236.48 104.99C234.5 106.86 232.35 109.13 231.89 111.84C234.9 111.84 237.9 111.84 240.91 111.84C240.91 109.11 240.91 106.39 240.91 103.67ZM341.81 109.97C340.31 109.97 338.81 109.97 337.32 109.97C336.51 112.77 336.56 116.03 337.32 118.85C338.81 118.85 340.31 118.85 341.81 118.85C341.81 115.89 341.81 112.93 341.81 109.97ZM349.83 110.08C347.89 110.08 345.94 110.08 344 110.08C344 113.01 344 115.94 344 118.86C345.94 118.86 347.89 118.86 349.83 118.86C349.83 115.94 349.83 113.01 349.83 110.08ZM142.07 111.06C140.52 111.06 138.97 111.06 137.42 111.06C136.56 115.53 136.26 120.62 142.07 119.56C142.07 116.73 142.07 113.9 142.07 111.06ZM150.58 111.06C148.66 111.06 146.74 111.06 144.83 111.06C144.83 113.86 144.83 116.66 144.83 119.45C151.4 121.32 151.42 116.19 150.58 111.06ZM254.94 114.07C247.04 114.07 239.14 114.07 231.23 114.07C230.34 118.72 230.21 124.32 231.23 128.95C239.14 128.95 247.04 128.95 254.94 128.95C254.94 123.99 254.94 119.03 254.94 114.07ZM341.78 120.32C340.29 120.32 338.8 120.32 337.32 120.32C335.87 122.96 336.58 126.96 337.32 129.76C338.8 129.76 340.29 129.76 341.78 129.76C341.78 126.62 341.78 123.47 341.78 120.32ZM349.81 120.32C347.88 120.32 345.94 120.32 344 120.32C344 123.47 344 126.63 344 129.78C345.94 129.78 347.88 129.78 349.81 129.78C349.81 126.63 349.81 123.47 349.81 120.32ZM142.07 121.48C140.44 121.48 138.81 121.48 137.18 121.48C137.18 124.38 137.18 127.28 137.18 130.18C138.81 130.18 140.44 130.18 142.07 130.18C142.07 127.28 142.07 124.38 142.07 121.48ZM150.8 122.05C148.87 121.09 146.91 121.19 144.83 121.64C144.83 124.5 144.83 127.35 144.83 130.2C146.82 130.2 148.81 130.2 150.8 130.2C150.8 127.49 150.8 124.77 150.8 122.05ZM344.89 165.38C344.89 171.26 344.89 177.13 344.89 183C352.55 183 360.21 183 367.87 183C365.73 171.92 355.51 165.69 344.89 165.38ZM166.79 183C168.39 174.32 152.47 163.28 144.26 166.27C144.26 171.84 144.26 177.42 144.26 183C151.77 183 159.28 183 166.79 183ZM266.95 183C263.72 172.95 255.42 164.51 244.03 165.95C244.03 171.63 244.03 177.32 244.03 183C251.67 183 259.31 183 266.95 183ZM140.5 166.36C139.35 166.74 138.21 166.33 137.09 166.68C130.63 168.68 124.18 176.83 122.36 182.99C128.55 182.99 134.74 182.99 140.93 182.99C141.62 179.99 142 168.79 140.5 166.36ZM240.92 166.41C233.54 165.71 222.57 175.76 221.94 182.99C228.27 182.99 234.59 182.99 240.92 182.99C240.92 177.46 240.92 171.94 240.92 166.41ZM341.22 166.36C334.43 165.74 323.68 176.36 322.97 182.99C329.22 182.99 335.46 182.99 341.7 182.99C342.2 179.97 342.73 168.59 341.22 166.36ZM168.02 186.02C152.36 186.02 136.71 186.02 121.05 186.02C121.05 194.66 121.05 203.3 121.05 211.95C124.99 213.63 130.54 212.63 134.79 212.65C141.81 212.67 148.82 212.59 155.84 212.65C159.77 212.68 164.16 213.18 168.02 212.38C168.02 203.6 168.02 194.81 168.02 186.02ZM267.93 186.02C252.34 186.02 236.74 186.02 221.15 186.02C220.12 192.25 220.47 198.61 220.45 204.93C220.44 207.11 219.75 210.43 221.15 212.19C224.41 213.66 229.84 212.64 233.42 212.65C241.02 212.66 248.62 212.62 256.22 212.66C259.92 212.68 264.51 213.37 267.93 211.95C267.93 203.3 267.93 194.66 267.93 186.02ZM368.92 186.02C353.44 186.02 337.96 186.02 322.47 186.02C321.39 187.92 322.08 190.08 321.87 192.22C321.35 197.36 320.57 207.92 322.41 212.54C332.75 213.56 343.58 212.62 353.97 212.66C358.55 212.68 364.69 213.71 368.92 211.95C368.92 203.3 368.92 194.66 368.92 186.02ZM227.08 261.18C227.08 264.42 227.08 267.65 227.08 270.89C230 270.89 232.91 270.89 235.83 270.89C235.83 267.65 235.83 264.42 235.83 261.18C232.91 261.18 230 261.18 227.08 261.18ZM238.08 261.21C238.08 264.44 238.08 267.68 238.08 270.91C241.03 270.91 243.97 270.91 246.92 270.91C246.92 267.68 246.92 264.44 246.92 261.21C243.97 261.21 241.03 261.21 238.08 261.21ZM258.07 261.19C255.07 261.19 252.06 261.19 249.06 261.19C249.06 264.44 249.06 267.68 249.06 270.92C252.08 270.92 255.1 270.92 258.12 270.92C259.3 268.29 259.28 263.8 258.07 261.19ZM141.91 265.16C137.39 265.16 132.86 265.16 128.33 265.16C128.33 267.43 128.33 269.69 128.33 271.95C132.86 271.95 137.39 271.95 141.91 271.95C141.91 269.69 141.91 267.43 141.91 265.16ZM125.79 265.87C122.75 264.43 117.41 264.81 114.15 265.52C114.15 267.67 114.15 269.81 114.15 271.96C118.03 271.96 121.91 271.96 125.79 271.96C125.79 269.93 125.79 267.9 125.79 265.87ZM158.03 265.21C153.71 265.21 149.39 265.21 145.07 265.21C145.07 267.45 145.07 269.7 145.07 271.95C149.39 271.95 153.71 271.95 158.03 271.95C158.03 269.7 158.03 267.45 158.03 265.21ZM173.91 265.22C169.75 265.22 165.59 265.22 161.42 265.22C161.42 267.46 161.42 269.7 161.42 271.95C165.59 271.95 169.75 271.95 173.91 271.95C173.91 269.7 173.91 267.46 173.91 265.22ZM325.99 265.22C322.39 265.22 318.8 265.22 315.2 265.22C314.19 267.6 314.39 269.49 314.96 271.94C318.64 271.94 322.31 271.94 325.99 271.94C325.99 269.7 325.99 267.46 325.99 265.22ZM329.04 265.18C329.04 267.44 329.04 269.69 329.04 271.95C333.57 271.95 338.1 271.95 342.63 271.95C342.63 269.69 342.63 267.44 342.63 265.18C338.1 265.18 333.57 265.18 329.04 265.18ZM358.85 265.2C354.28 265.2 349.72 265.2 345.15 265.2C345.15 267.45 345.15 269.7 345.15 271.96C349.72 271.96 354.28 271.96 358.85 271.96C358.85 269.7 358.85 267.45 358.85 265.2ZM374.88 265.2C370.32 265.2 365.76 265.2 361.2 265.2C361.2 267.45 361.2 269.71 361.2 271.97C365.76 271.97 370.32 271.97 374.88 271.97C374.88 269.71 374.88 267.45 374.88 265.2ZM125.81 275.92C122.82 274.39 117.38 274.95 114.11 275.53C114.11 279.02 114.11 282.51 114.11 286C118.01 286 121.91 286 125.81 286C125.81 282.64 125.81 279.28 125.81 275.92ZM141.93 275.26C137.4 275.26 132.87 275.26 128.34 275.26C128.34 278.83 128.34 282.41 128.34 285.99C132.87 285.99 137.4 285.99 141.93 285.99C141.93 282.41 141.93 278.83 141.93 275.26ZM145.06 275.24C145.06 278.83 145.06 282.41 145.06 286C149.38 286 153.71 286 158.04 286C158.04 282.41 158.04 278.83 158.04 275.24C153.71 275.24 149.38 275.24 145.06 275.24ZM173.92 275.28C169.93 275.28 165.95 275.28 161.97 275.28C160.65 278.12 161.03 282.92 161.53 286.01C165.66 286.01 169.79 286.01 173.92 286.01C173.92 282.43 173.92 278.85 173.92 275.28ZM326.03 275.26C322.28 275.26 318.53 275.26 314.77 275.26C314.77 278.84 314.77 282.41 314.77 285.99C318.53 285.99 322.28 285.99 326.03 285.99C326.03 282.41 326.03 278.84 326.03 275.26ZM342.66 275.27C338.12 275.27 333.57 275.27 329.03 275.27C329.03 278.84 329.03 282.41 329.03 285.98C333.57 285.98 338.12 285.98 342.66 285.98C342.66 282.41 342.66 278.84 342.66 275.27ZM358.88 275.26C354.29 275.26 349.71 275.26 345.13 275.26C345.13 278.84 345.13 282.42 345.13 286C349.71 286 354.29 286 358.88 286C358.88 282.42 358.88 278.84 358.88 275.26ZM374.92 275.53C371.18 274.87 364.64 274.24 361.18 275.87C361.18 279.25 361.18 282.63 361.18 286.02C365.76 286.02 370.34 286.02 374.92 286.02C374.92 282.52 374.92 279.02 374.92 275.53ZM125.81 289.7C121.91 289.7 118.02 289.7 114.12 289.7C114.12 292.56 114.12 295.43 114.12 298.3C117.31 299.1 122.79 299.38 125.81 298.01C125.81 295.24 125.81 292.47 125.81 289.7ZM141.92 289.68C137.39 289.68 132.87 289.68 128.34 289.68C128.34 292.65 128.34 295.63 128.34 298.61C132.87 298.61 137.39 298.61 141.92 298.61C141.92 295.63 141.92 292.65 141.92 289.68ZM145.06 289.66C145.06 292.66 145.06 295.66 145.06 298.66C149.37 298.66 153.69 298.66 158 298.66C158 295.66 158 292.66 158 289.66C153.69 289.66 149.37 289.66 145.06 289.66ZM173.92 289.97C170.61 289.2 164.49 288.81 161.37 290.24C161.37 292.78 161.37 295.32 161.37 297.86C164.23 299.6 170.71 299.09 173.92 298.3C173.92 295.53 173.92 292.75 173.92 289.97ZM315.4 289.66C314.07 292.04 314.18 296.25 315.4 298.63C318.91 298.63 322.42 298.63 325.93 298.63C325.93 295.64 325.93 292.65 325.93 289.66C322.42 289.66 318.91 289.66 315.4 289.66ZM342.65 290.26C339.53 288.67 332.4 289.13 329.04 289.97C329.04 292.86 329.04 295.74 329.04 298.62C333.57 298.62 338.11 298.62 342.65 298.62C342.65 295.83 342.65 293.05 342.65 290.26ZM358.86 289.67C354.29 289.67 349.73 289.67 345.16 289.67C345.16 292.65 345.16 295.64 345.16 298.62C349.73 298.62 354.29 298.62 358.86 298.62C358.86 295.64 358.86 292.65 358.86 289.67ZM374.9 289.67C370.33 289.67 365.76 289.67 361.19 289.67C361.19 292.47 361.19 295.27 361.19 298.07C364.71 299.61 371.14 299.03 374.9 298.37C374.9 295.47 374.9 292.57 374.9 289.67ZM125.82 302.06C121.91 302.06 118 302.06 114.09 302.06C114.09 305.48 114.09 308.9 114.09 312.32C118 312.32 121.91 312.32 125.82 312.32C125.82 308.9 125.82 305.48 125.82 302.06ZM141.91 302.05C137.39 302.05 132.86 302.05 128.33 302.05C128.33 305.49 128.33 308.92 128.33 312.36C132.86 312.36 137.39 312.36 141.91 312.36C141.91 308.92 141.91 305.49 141.91 302.05ZM158.02 302.05C153.69 302.05 149.37 302.05 145.04 302.05C145.04 305.49 145.04 308.93 145.04 312.37C149.37 312.37 153.69 312.37 158.02 312.37C158.02 308.93 158.02 305.49 158.02 302.05ZM173.94 302.06C169.75 302.06 165.56 302.06 161.37 302.06C161.37 305.48 161.37 308.9 161.37 312.32C165.56 312.32 169.75 312.32 173.94 312.32C173.94 308.9 173.94 305.48 173.94 302.06ZM326.06 302.05C322.37 302.05 318.68 302.05 314.98 302.05C314.46 304.87 313.91 309.8 315.4 312.29C318.95 312.29 322.51 312.29 326.06 312.29C326.06 308.88 326.06 305.46 326.06 302.05ZM342.68 302.06C338.13 302.06 333.59 302.06 329.04 302.06C329.04 305.47 329.04 308.88 329.04 312.29C333.59 312.29 338.13 312.29 342.68 312.29C342.68 308.88 342.68 305.47 342.68 302.06ZM358.9 302.05C354.31 302.05 349.71 302.05 345.12 302.05C345.12 305.33 345.12 308.61 345.12 311.89C348.45 312.97 355.74 313.19 358.9 311.72C358.9 308.5 358.9 305.27 358.9 302.05ZM374.94 302.05C370.35 302.05 365.77 302.05 361.19 302.05C361.19 305.47 361.19 308.88 361.19 312.3C365.77 312.3 370.35 312.3 374.94 312.3C374.94 308.88 374.94 305.47 374.94 302.05Z" fill="#0c4a6e" fill-rule="evenodd" stroke="#0c4a6e" stroke-width="0.25" stroke-linejoin="round"/>
</svg>