<?xml version="1.0" encoding="UTF-8"?>
<svg xmlns="http://www.w3.org/2000/svg" viewBox="0 0 480 480" width="480" height="480">
<path d="M63.34 168.88C71.23 174.62 79.11 180.35 86.99 186.08C86.99 182.74 86.99 179.4 86.99 176.06C91.93 176.06 96.87 176.06 101.82 176.06C102.22 180.25 101.02 195.48 102.16 197.97C103.65 201.22 116.55 207.5 118.96 211.3C119.97 212.88 119.47 215.81 119.5 217.64C119.59 222.68 120.57 229.08 119.45 233.87C115.25 232.86 110.99 227.97 107.56 225.34C97.64 217.72 87.78 210.03 77.73 202.59C73.84 199.71 67.57 192.91 63.12 191.78C44.79 205.72 26.45 219.65 8.11 233.59C6.45 230.95 7.27 220.91 7.13 217.21C7.07 215.65 6.74 213.4 7.31 211.95C8.27 209.54 18.87 202.51 21.46 200.59C30.68 193.76 39.6 186.52 48.75 179.64C53.29 176.23 58.09 170.99 63.34 168.88ZM61.59 209.73C63.45 211.74 63 216.25 62.47 218.82C60.56 220.06 56.25 219.91 54.14 219.1C52.92 214.18 57.16 210.67 61.59 209.73ZM72.94 219.42C70.33 219.42 67.71 219.42 65.1 219.42C64.17 216.86 63.92 212.84 64.84 210.19C69.81 209.31 73.43 214.92 72.94 219.42ZM165.65 209.98C173.61 226.33 181.2 242.96 189.29 259.32C191.63 264.07 193.67 268.95 196.17 273.56C197.33 275.69 199.23 278.58 198.9 281C192.87 281 186.85 281 180.82 281C178.48 276.04 176.15 271.07 173.81 266.11C162.12 266.11 150.43 266.11 138.74 266.11C136.4 271.04 134.06 275.97 131.73 280.9C128.89 281.26 115.54 281.72 113.88 280.33C125.09 256.88 136.3 233.43 147.51 209.98C153.55 209.98 159.6 209.98 165.65 209.98ZM223.78 210.19C224.58 213.49 224.11 217.3 224.11 220.71C224.12 227.73 224.11 234.74 224.11 241.75C224.11 251.45 223.61 263.77 235.4 266.62C237.67 267.17 240.31 267.05 242.63 266.95C252.16 266.56 256.1 258.72 256.1 250.08C256.11 241.02 256.15 231.96 256.12 222.9C256.11 218.84 255.31 213.81 256.66 209.99C262.21 209.99 267.76 209.99 273.32 209.99C275.11 214.69 273.94 227.38 273.91 232.99C273.81 251.46 275.67 272.82 254.25 280C251.85 280.8 249.11 281.72 246.58 281.94C240.55 282.46 233.99 282.23 228.15 280.75C204.68 274.82 206.23 251.84 206.23 232.55C206.23 225.43 205.39 217.63 206.41 210.63C209.05 209.23 220.6 209.49 223.78 210.19ZM333.15 252.71C335.37 251.68 339.69 242.39 341.21 239.78C345.49 232.42 350.35 225.47 354.7 218.13C355.92 216.06 357.73 211.31 359.93 210.21C362.19 209.09 372.46 209.8 375.23 210.19C375.23 233.72 375.23 257.24 375.23 280.77C372.17 281.28 360.73 281.89 358.42 280.33C357.43 277.07 358.38 272.76 358.35 269.37C358.3 263.53 358.09 257.69 358.11 251.84C358.12 249.02 359.16 243.41 357.48 241.14C353.1 248.26 348.56 255.32 344.29 262.51C342.78 265.05 339.71 271.67 337.49 273.24C335.71 274.5 330.57 274.07 328.55 273.54C321.69 262.94 314.84 252.35 307.98 241.75C307.98 254.81 307.98 267.87 307.98 280.92C302.28 280.92 296.57 280.92 290.86 280.92C290.86 257.34 290.86 233.75 290.86 210.17C293.86 209.79 303.41 209.06 305.98 210.17C307.98 211.03 311.94 219.2 313.28 221.35C319.74 231.81 326.11 242.66 333.15 252.71ZM435.51 209.98C439.26 215.17 442.69 223.74 445.17 229.73C449.59 240.4 455.36 250.58 460.22 261.02C462.53 265.98 465.13 270.8 467.17 275.86C467.86 277.6 469.37 278.74 469.01 280.77C465.2 281.32 453.63 282.01 450.41 280.34C448.23 275.59 446.04 270.84 443.86 266.09C432.28 266.09 420.69 266.09 409.11 266.09C406.68 270.98 404.25 275.88 401.82 280.77C399.11 281.3 385.67 281.76 383.98 280.33C395.17 256.88 406.35 233.43 417.53 209.98C423.53 209.98 429.52 209.98 435.51 209.98ZM44.49 212.57C45.88 214.44 45.15 218 45.12 220.27C45.06 226.11 44.09 233.32 45.37 239C48.14 240.81 53.5 239.66 56.77 239.71C66.46 239.84 77.59 240.37 81.73 229.75C84.49 222.68 80.49 217.15 81.32 212.22C86.89 214.69 92.62 219.83 97.28 223.78C98.55 224.85 101.14 226.02 101.6 227.73C102.02 229.31 101.36 230.69 101.11 232.19C99.91 239.21 95.58 245.67 89.54 249.75C88.13 250.7 86.54 251.22 85.19 252.27C86.64 257.98 96.38 269.19 100.17 274.45C101.56 276.38 103.3 278.02 104.01 280.33C102.06 281.85 96.6 280.91 94.03 280.9C91.13 280.9 85.5 281.99 82.91 280.73C80.85 279.73 79.19 276.13 77.8 274.36C73.85 269.35 67.04 261.5 64.88 255.7C58.45 255.7 52.02 255.7 45.59 255.7C45.34 264.05 45.09 272.41 44.84 280.77C41.32 281.49 28.38 281.89 25.46 280.33C24.5 276.57 25.24 271.93 25.23 268.05C25.2 259.73 25.19 251.4 25.18 243.07C25.18 239.06 24.12 230.88 25.38 227.35C26.02 225.54 29.28 224 30.75 222.93C35.27 219.63 39.63 215.29 44.49 212.57ZM61.95 221.28C63.22 223.64 62.84 226.85 62.52 229.48C60.48 231.01 56.27 230.63 53.84 230.02C53.84 227.11 53.84 224.2 53.84 221.28C56.54 221.28 59.25 221.28 61.95 221.28ZM73.24 221.45C73.24 224.41 73.24 227.37 73.24 230.32C70.52 230.32 67.81 230.32 65.1 230.32C64.11 227.51 64.14 224.26 65.1 221.45C67.81 221.45 70.52 221.45 73.24 221.45ZM166.44 252.27C167.64 249.05 160.59 237.75 159.15 233.85C158.56 232.27 157.7 228.71 156.05 228.16C152.62 235.94 149.19 243.71 145.75 251.48C148.16 253.47 162.79 252.24 166.44 252.27ZM437.26 251.62C435.26 245.48 431.88 239.6 429.33 233.66C428.63 232.04 427.91 228.6 426.08 228.16C422.65 235.94 419.21 243.71 415.78 251.48C417.91 253.26 428.66 252.29 432 252.3C433.73 252.3 435.84 252.73 437.26 251.62Z" fill="#424f6f" fill-rule="evenodd" stroke="#424f6f" stroke-width="0.25" stroke-linejoin="round"/>
</svg>